<svg xmlns="http://www.w3.org/2000/svg" version="1.1" width="2000" height="1250" viewBox="0 0 2000 1250">
    <g transform="matrix(1,0,0,1,0,0)">
        <svg viewBox="0 0 512 320" data-background-color="#ffffff" preserveAspectRatio="xMidYMid meet" height="1250"
             width="2000" xmlns="http://www.w3.org/2000/svg">
            <g id="tight-bounds" transform="matrix(1,0,0,1,0,0)">
                <svg viewBox="0 0 512 320" height="320" width="512">
                    <g>
                        <svg></svg>
                    </g>
                    <g>
                        <svg viewBox="0 0 512 320" height="320" width="512">
                            <g>
                                <path d="M96 320l0-320 320 0 0 320z" fill="#0718c4" fill-rule="nonzero" stroke="none"
                                      stroke-width="1" stroke-linecap="butt" stroke-linejoin="miter"
                                      stroke-miterlimit="10" stroke-dasharray="" stroke-dashoffset="0"
                                      font-family="none" font-weight="none" font-size="none" text-anchor="none"
                                      style="mix-blend-mode: normal" data-fill-palette-color="tertiary"></path>
                            </g>
                            <g transform="matrix(1,0,0,1,140.8,86.15898044063317)">
                                <svg viewBox="0 0 230.4 147.68203911873366" height="147.68203911873366" width="230.4">
                                    <g>
                                        <svg viewBox="0 0 230.4 147.68203911873366" height="147.68203911873366"
                                             width="230.4">
                                            <g>
                                                <svg viewBox="0 0 230.4 147.68203911873366" height="147.68203911873366"
                                                     width="230.4">
                                                    <g id="textblocktransform">
                                                        <svg viewBox="0 0 230.4 147.68203911873366"
                                                             height="147.68203911873366" width="230.4" id="textblock">
                                                            <g>
                                                                <svg viewBox="0 0 230.4 147.68203911873366"
                                                                     height="147.68203911873366" width="230.4">
                                                                    <g transform="matrix(1,0,0,1,0,0)">
                                                                        <svg width="230.4"
                                                                             viewBox="1.15 -38 59.908165223036264 38.4"
                                                                             height="147.68203911873366"
                                                                             data-palette-color="#ffffff">
                                                                            <g transform="matrix(1,0,0,1,0,0)">
                                                                                <g>
                                                                                    <svg width="12.338776815357509"
                                                                                         viewBox="4.05 -36.86 54.56021810518801 37.36"
                                                                                         height="8.448000000000002"
                                                                                         data-palette-color="#ffffff"
                                                                                         id="scriptelement"
                                                                                         x="48.71938840767875" y="-38">
                                                                                        <path d="M16.51-15.91L11.74-15.91 12.18-22.78 6.43-18.93 4.05-23.12 10.25-26.14 4.05-29.15 6.43-33.35 12.18-29.49 11.74-36.36 16.51-36.36 16.05-29.49 21.8-33.35 24.18-29.15 18-26.14 24.18-23.12 21.8-18.93 16.05-22.78 16.51-15.91ZM44.62 0.5L44.62 0.5Q40.64 0.5 37.54-0.88 34.44-2.25 32.66-4.68 30.87-7.1 30.82-10.28L30.82-10.28 38.56-10.28Q38.63-8.95 39.44-7.95 40.25-6.94 41.6-6.39 42.95-5.84 44.64-5.84L44.64-5.84Q46.39-5.84 47.74-6.46 49.09-7.08 49.86-8.19 50.62-9.29 50.62-10.72L50.62-10.72Q50.62-12.18 49.81-13.31 49-14.44 47.5-15.07 46-15.71 43.94-15.71L43.94-15.71 40.55-15.71 40.55-21.36 43.94-21.36Q45.68-21.36 47.02-21.96 48.36-22.57 49.11-23.64 49.86-24.72 49.86-26.15L49.86-26.15Q49.86-27.52 49.21-28.56 48.56-29.6 47.4-30.18 46.23-30.77 44.69-30.77L44.69-30.77Q43.13-30.77 41.83-30.21 40.53-29.65 39.75-28.62 38.97-27.59 38.92-26.21L38.92-26.21 31.55-26.21Q31.6-29.35 33.34-31.75 35.08-34.14 38.04-35.5 41-36.86 44.72-36.86L44.72-36.86Q48.49-36.86 51.31-35.49 54.13-34.13 55.71-31.81 57.28-29.49 57.26-26.62L57.26-26.62Q57.28-23.56 55.37-21.52 53.46-19.48 50.41-18.93L50.41-18.93 50.41-18.64Q54.42-18.13 56.52-15.86 58.63-13.6 58.61-10.21L58.61-10.21Q58.63-7.1 56.82-4.69 55.02-2.27 51.86-0.89 48.7 0.5 44.62 0.5Z"
                                                                                              opacity="1"
                                                                                              transform="matrix(1,0,0,1,0,0)"
                                                                                              fill="#ffffff"
                                                                                              class="undefined-123"
                                                                                              data-fill-palette-color="quaternary"
                                                                                              id="yy-123"></path>
                                                                                    </svg>
                                                                                </g>
                                                                            </g>
                                                                            <path d="M3.7 0.4L3.7 0.4Q3.25 0.4 2.65 0.08 2.05-0.25 1.6-0.73 1.15-1.2 1.15-1.65L1.15-1.65Q1.15-2.1 1.45-2.5L1.45-2.5 7.85-12 1.65-21.1Q1.55-21.25 1.45-21.48 1.35-21.7 1.35-21.9L1.35-21.9Q1.35-22.4 1.8-22.88 2.25-23.35 2.85-23.68 3.45-24 4-24L4-24Q4.25-24 4.58-23.88 4.9-23.75 5.1-23.4L5.1-23.4 10.65-14.8 16.25-23.4Q16.4-23.7 16.73-23.85 17.05-24 17.35-24L17.35-24Q17.85-24 18.48-23.7 19.1-23.4 19.53-22.9 19.95-22.4 19.95-21.9L19.95-21.9Q19.95-21.55 19.65-21.1L19.65-21.1 13.4-12 19.9-2.5Q20-2.35 20.08-2.13 20.15-1.9 20.15-1.65L20.15-1.65Q20.15-1.25 19.73-0.75 19.3-0.25 18.73 0.08 18.15 0.4 17.55 0.4L17.55 0.4Q17.25 0.4 16.95 0.25 16.65 0.1 16.45-0.2L16.45-0.2 10.65-9.05 4.9-0.2Q4.7 0.1 4.35 0.25 4 0.4 3.7 0.4ZM31.75 0.4L31.75 0.4Q29.4 0.4 27.37-0.98 25.35-2.35 24.12-4.58 22.9-6.8 22.9-9.3L22.9-9.3 22.9-14.4Q22.9-17.05 24.12-19.2 25.35-21.35 27.37-22.68 29.4-24 31.85-24L31.85-24Q34.25-24 35.92-22.83 37.6-21.65 38.4-20.2L38.4-20.2 38.4-36.55Q38.4-37.2 39.02-37.6 39.65-38 40.55-38L40.55-38Q41.45-38 42-37.6 42.55-37.2 42.55-36.55L42.55-36.55 42.55-1.5Q42.55-0.95 42-0.48 41.45 0 40.55 0L40.55 0Q39.75 0 39.17-0.48 38.6-0.95 38.6-1.5L38.6-1.5 38.6-3.5Q37.85-1.95 35.95-0.78 34.05 0.4 31.75 0.4ZM32.75-3.35L32.75-3.35Q34.35-3.35 35.62-4.23 36.9-5.1 37.65-6.2 38.4-7.3 38.4-7.95L38.4-7.95 38.4-14.4Q38.4-16.25 37.57-17.53 36.75-18.8 35.45-19.53 34.15-20.25 32.8-20.25L32.8-20.25Q31.2-20.25 29.9-19.4 28.6-18.55 27.82-17.2 27.05-15.85 27.05-14.4L27.05-14.4 27.05-9.3Q27.05-7.85 27.82-6.45 28.6-5.05 29.9-4.2 31.2-3.35 32.75-3.35Z"
                                                                                  opacity="1"
                                                                                  transform="matrix(1,0,0,1,0,0)"
                                                                                  fill="#ffffff" class="wordmark-text-0"
                                                                                  data-fill-palette-color="quaternary"
                                                                                  id="text-0"></path>
                                                                        </svg>
                                                                    </g>
                                                                </svg>
                                                            </g>
                                                        </svg>
                                                    </g>
                                                </svg>
                                            </g>
                                            <g></g>
                                        </svg>
                                    </g>
                                </svg>
                            </g>
                        </svg>
                    </g>
                    <defs></defs>
                </svg>
                <rect width="512" height="320" fill="none" stroke="none" visibility="hidden"></rect>
            </g>
        </svg>
    </g>
</svg>